# xmcd
#
# Track frame offsets:
#	150
#	32474
#	61802
#	99459
#	111290
#	140570
#	168764
#	193569
#	236492
#
# Disc length: 3918 seconds
#
# Revision: 0
# Processed by: cddbd v1.5.2PL0 Copyright (c) Steve Scherf et al.
# Submitted via: audiograbber 1.83.01
#
DISCID=6d0f4c09
DTITLE=Grateful Dead - 94-10-13 Madison Square Garden, New York NY
DYEAR=1900
DGENRE=
TTITLE0=Touch Of Grey
TTITLE1=Wang Dang Doodle
TTITLE2=Loser
TTITLE3=Mama Tried
TTITLE4=Mexicali Blues
TTITLE5=Dupree's Diamond Blues
TTITLE6=When I Paint My Masterpiece
TTITLE7=Loose Lucy
TTITLE8=Let It Grow
EXTD=
EXTT0=
EXTT1=
EXTT2=
EXTT3=
EXTT4=
EXTT5=
EXTT6=
EXTT7=
EXTT8=
PLAYORDER=
